<?xml version="1.0" encoding="UTF-8" standalone="no"?>
<svg
   viewBox="0 0 6400 6400"
   preserveAspectRatio="xMidYMid"
   version="1.1"
   id="svg16"
   xmlns="http://www.w3.org/2000/svg"
   xmlns:svg="http://www.w3.org/2000/svg">
  <defs
     id="defs6">
    <linearGradient
       id="rainbowGradient"
       x1="21.445082"
       y1="1537.33"
       x2="1428.7968"
       y2="1537.33"
       gradientTransform="matrix(0,-4.4820114,0.22311411,0,2795.9637,6432.2582)"
       gradientUnits="userSpaceOnUse">
      <stop
         offset="0%"
         stop-color="#ff5e5e"
         id="stop1" />
      <stop
         offset="20%"
         stop-color="#ffb05e"
         id="stop2" />
      <stop
         offset="40%"
         stop-color="#ffff5e"
         id="stop3" />
      <stop
         offset="60%"
         stop-color="#5eff7f"
         id="stop4" />
      <stop
         offset="80%"
         stop-color="#5e9eff"
         id="stop5" />
      <stop
         offset="100%"
         stop-color="#c15eff"
         id="stop6" />
    </linearGradient>
    <symbol
       id="star"
       viewBox="0 0 24 24">
      <path
         d="m 12,1.5 2.61,6.727 6.89,0.53 -5.278,4.688 1.5,7.055 L 12,16.743 6.278,20.5 7.778,13.445 2.5,8.757 9.39,8.227 Z"
         id="path6" />
    </symbol>
  </defs>
  <path
     id="sinePath"
     d="m 3295.9637,6332.2582 c 200,-300 -200,-600 0,-900 200,-300 200,-300 0,-600 -200,-300 -200,-300 0,-600 200,-300 200,-300 0,-600 -200,-300 -200,-300 0,-600 200,-300 200,-300 0,-600 -200,-300 -200,-300 0,-600 200,-300.0001 200,-300.0001 0,-600.0001 -200,-299.99997 -200,-299.99997 0,-599.99997 200,-300 200,-300 0,-600.000002"
     fill="none"
     stroke="url(#rainbowGradient)"
     stroke-width="14"
     style="stroke:url(#rainbowGradient)" />
  <!-- ⭐ HVĚZDIČKY A TEXTY ⭐ -->
  <use
     href="#star"
     x="76"
     y="476"
     width="72"
     height="72"
     fill="#ffffff"
     transform="rotate(-90,4557.6827,1714.5914)"
     id="use6" />
  <text
     x="3519.8628"
     y="6206.5342"
     fill="#ffffff"
     font-size="124px"
     text-anchor="start"
     id="text6">Information Science</text>
  <use
     href="#star"
     x="666"
     y="280"
     width="72"
     height="72"
     fill="#ffffff"
     transform="rotate(-90,4646.3549,1723.2152)"
     id="use7" />
  <text
     x="3051.4265"
     y="5711.2134"
     fill="#ffffff"
     font-size="124px"
     text-anchor="end"
     id="text7">Information Resources and Funds</text>
  <use
     href="#star"
     x="1256"
     y="500"
     width="72"
     height="72"
     fill="#ffffff"
     transform="rotate(-90,4669.944,1762.7711)"
     id="use8" />
  <text
     x="3512.7949"
     y="5175.1992"
     fill="#ffffff"
     font-size="124px"
     text-anchor="start"
     id="text8">Digital Literacy</text>
  <use
     href="#star"
     x="1846"
     y="300"
     width="72"
     height="72"
     fill="#ffffff"
     transform="rotate(-90,4618.1541,1812.1904)"
     id="use9" />
  <text
     x="3052.1704"
     y="4580.5845"
     fill="#ffffff"
     font-size="124px"
     text-anchor="end"
     id="text9">Digital Competence Course</text>
  <use
     href="#star"
     x="2436"
     y="700"
     width="72"
     height="72"
     fill="#ffffff"
     transform="rotate(-90,4558.1576,1838.1939)"
     id="use10" />
  <text
     x="3517.2588"
     y="3963.7803"
     fill="#ffffff"
     font-size="124px"
     text-anchor="start"
     id="text10">Group of Experts</text>
  <use
     href="#star"
     x="3026"
     y="300"
     width="72"
     height="72"
     fill="#ffffff"
     transform="rotate(-90,4603.4018,1797.4381)"
     id="use11" />
  <text
     x="3052.1704"
     y="3366.9221"
     fill="#ffffff"
     font-size="124px"
     text-anchor="end"
     id="text11">Media in the Information Age</text>
  <use
     href="#star"
     x="3616"
     y="700"
     width="72"
     height="72"
     fill="#ffffff"
     transform="rotate(-90,4541.5546,1821.5909)"
     id="use12" />
  <text
     x="3512.7949"
     y="2741.1414"
     fill="#ffffff"
     font-size="124px"
     text-anchor="start"
     id="text12">Media and Society</text>
  <use
     href="#star"
     x="4206"
     y="300"
     width="72"
     height="72"
     fill="#ffffff"
     transform="rotate(-90,4600.2751,1794.3114)"
     id="use13" />
  <text
     x="3055.8906"
     y="2182.4341"
     fill="#ffffff"
     font-size="124px"
     text-anchor="end"
     id="text13">Data and the Ultimate Question</text>
  <use
     href="#star"
     x="4796"
     y="700"
     width="72"
     height="72"
     fill="#ffffff"
     transform="rotate(-90,4530.3339,1826.0793)"
     id="use14" />
  <text
     x="3519.8628"
     y="1556.6532"
     fill="#ffffff"
     font-size="124px"
     text-anchor="start"
     id="text14">Intro to Scheduling</text>
  <g
     id="g17"
     transform="translate(-23.961642,-51.615799)">
    <use
       href="#star"
       x="5386"
       y="300"
       width="72"
       height="72"
       fill="#ffffff"
       transform="rotate(-90,4630.001,1799.5489)"
       id="use15" />
    <text
       x="3080.3481"
       y="1054.0499"
       fill="#ffffff"
       font-size="124px"
       text-anchor="end"
       id="text15">Winter School</text>
  </g>
  <g
     id="g16"
     transform="translate(13.369148,13.464991)">
    <use
       href="#star"
       x="5976"
       y="700"
       width="72"
       height="72"
       fill="#ffffff"
       transform="rotate(-90,4505.3493,1798.653)"
       id="use16" />
    <text
       x="3518.4988"
       y="338.50229"
       fill="#ffffff"
       font-size="124px"
       text-anchor="start"
       id="text16">Summer School</text>
  </g>
</svg>
